<mxfile host="app.diagrams.net" modified="2022-08-17T06:35:38.894Z" agent="5.0 (Windows NT 10.0; Win64; x64) AppleWebKit/537.36 (KHTML, like Gecko) Chrome/104.0.0.0 Safari/537.36" etag="F-9pl0q6K36-StzXkMiM" version="20.0.4" type="github">
  <diagram id="C5RBs43oDa-KdzZeNtuy" name="Page-1">
    <mxGraphModel dx="1422" dy="762" grid="0" gridSize="10" guides="1" tooltips="1" connect="1" arrows="1" fold="1" page="1" pageScale="1" pageWidth="827" pageHeight="1169" math="0" shadow="0">
      <root>
        <mxCell id="WIyWlLk6GJQsqaUBKTNV-0" />
        <mxCell id="WIyWlLk6GJQsqaUBKTNV-1" parent="WIyWlLk6GJQsqaUBKTNV-0" />
        <mxCell id="1jNsRgJLZ7SKrJE8_M94-11" value="" style="edgeStyle=orthogonalEdgeStyle;rounded=0;orthogonalLoop=1;jettySize=auto;html=1;" edge="1" parent="WIyWlLk6GJQsqaUBKTNV-1" target="1jNsRgJLZ7SKrJE8_M94-10">
          <mxGeometry relative="1" as="geometry">
            <mxPoint x="220" y="180" as="sourcePoint" />
          </mxGeometry>
        </mxCell>
        <mxCell id="1jNsRgJLZ7SKrJE8_M94-21" value="" style="edgeStyle=orthogonalEdgeStyle;rounded=0;orthogonalLoop=1;jettySize=auto;html=1;" edge="1" parent="WIyWlLk6GJQsqaUBKTNV-1" source="1jNsRgJLZ7SKrJE8_M94-10" target="1jNsRgJLZ7SKrJE8_M94-20">
          <mxGeometry relative="1" as="geometry" />
        </mxCell>
        <mxCell id="1jNsRgJLZ7SKrJE8_M94-10" value="触发jenkins编译" style="whiteSpace=wrap;html=1;rounded=1;glass=0;strokeWidth=1;shadow=0;" vertex="1" parent="WIyWlLk6GJQsqaUBKTNV-1">
          <mxGeometry x="160" y="210" width="120" height="60" as="geometry" />
        </mxCell>
        <mxCell id="1jNsRgJLZ7SKrJE8_M94-23" value="Y" style="edgeStyle=orthogonalEdgeStyle;rounded=0;orthogonalLoop=1;jettySize=auto;html=1;exitX=0.5;exitY=1;exitDx=0;exitDy=0;entryX=0.5;entryY=0;entryDx=0;entryDy=0;" edge="1" parent="WIyWlLk6GJQsqaUBKTNV-1" source="1jNsRgJLZ7SKrJE8_M94-20" target="1jNsRgJLZ7SKrJE8_M94-12">
          <mxGeometry relative="1" as="geometry" />
        </mxCell>
        <mxCell id="1jNsRgJLZ7SKrJE8_M94-24" style="edgeStyle=orthogonalEdgeStyle;rounded=0;orthogonalLoop=1;jettySize=auto;html=1;exitX=1;exitY=0.5;exitDx=0;exitDy=0;entryX=1;entryY=0.5;entryDx=0;entryDy=0;" edge="1" parent="WIyWlLk6GJQsqaUBKTNV-1" source="1jNsRgJLZ7SKrJE8_M94-20" target="1jNsRgJLZ7SKrJE8_M94-18">
          <mxGeometry relative="1" as="geometry" />
        </mxCell>
        <mxCell id="1jNsRgJLZ7SKrJE8_M94-25" value="N" style="edgeLabel;html=1;align=center;verticalAlign=middle;resizable=0;points=[];" vertex="1" connectable="0" parent="1jNsRgJLZ7SKrJE8_M94-24">
          <mxGeometry x="-0.8176" y="-2" relative="1" as="geometry">
            <mxPoint as="offset" />
          </mxGeometry>
        </mxCell>
        <mxCell id="1jNsRgJLZ7SKrJE8_M94-20" value="编译成功与否" style="rhombus;whiteSpace=wrap;html=1;rounded=1;glass=0;strokeWidth=1;shadow=0;" vertex="1" parent="WIyWlLk6GJQsqaUBKTNV-1">
          <mxGeometry x="180" y="290" width="80" height="80" as="geometry" />
        </mxCell>
        <mxCell id="1jNsRgJLZ7SKrJE8_M94-31" value="Gerrit submit代码" style="rounded=1;whiteSpace=wrap;html=1;" vertex="1" parent="WIyWlLk6GJQsqaUBKTNV-1">
          <mxGeometry x="160" y="130" width="120" height="60" as="geometry" />
        </mxCell>
        <mxCell id="1jNsRgJLZ7SKrJE8_M94-34" style="edgeStyle=orthogonalEdgeStyle;rounded=0;orthogonalLoop=1;jettySize=auto;html=1;exitX=0.5;exitY=1;exitDx=0;exitDy=0;entryX=0.5;entryY=0;entryDx=0;entryDy=0;" edge="1" parent="WIyWlLk6GJQsqaUBKTNV-1" source="1jNsRgJLZ7SKrJE8_M94-33" target="1jNsRgJLZ7SKrJE8_M94-31">
          <mxGeometry relative="1" as="geometry" />
        </mxCell>
        <mxCell id="1jNsRgJLZ7SKrJE8_M94-33" value="开始" style="rounded=1;whiteSpace=wrap;html=1;" vertex="1" parent="WIyWlLk6GJQsqaUBKTNV-1">
          <mxGeometry x="160" y="50" width="120" height="60" as="geometry" />
        </mxCell>
        <mxCell id="1jNsRgJLZ7SKrJE8_M94-35" value="协议组持续集成" style="swimlane;" vertex="1" parent="WIyWlLk6GJQsqaUBKTNV-1">
          <mxGeometry x="120" y="20" width="200" height="780" as="geometry" />
        </mxCell>
        <mxCell id="1jNsRgJLZ7SKrJE8_M94-71" value="N" style="edgeStyle=orthogonalEdgeStyle;rounded=0;orthogonalLoop=1;jettySize=auto;html=1;exitX=1;exitY=0.5;exitDx=0;exitDy=0;entryX=1;entryY=0.5;entryDx=0;entryDy=0;" edge="1" parent="1jNsRgJLZ7SKrJE8_M94-35" source="1jNsRgJLZ7SKrJE8_M94-57" target="1jNsRgJLZ7SKrJE8_M94-18">
          <mxGeometry relative="1" as="geometry" />
        </mxCell>
        <mxCell id="1jNsRgJLZ7SKrJE8_M94-72" value="Y" style="edgeStyle=orthogonalEdgeStyle;rounded=0;orthogonalLoop=1;jettySize=auto;html=1;exitX=0.5;exitY=1;exitDx=0;exitDy=0;entryX=0.5;entryY=0;entryDx=0;entryDy=0;" edge="1" parent="1jNsRgJLZ7SKrJE8_M94-35" source="1jNsRgJLZ7SKrJE8_M94-57" target="1jNsRgJLZ7SKrJE8_M94-65">
          <mxGeometry relative="1" as="geometry" />
        </mxCell>
        <mxCell id="1jNsRgJLZ7SKrJE8_M94-57" value="本地是否需要自动测试" style="rhombus;whiteSpace=wrap;html=1;rounded=1;glass=0;strokeWidth=1;shadow=0;" vertex="1" parent="1jNsRgJLZ7SKrJE8_M94-35">
          <mxGeometry x="60" y="455" width="80" height="80" as="geometry" />
        </mxCell>
        <mxCell id="1jNsRgJLZ7SKrJE8_M94-18" value="邮件通知相关人员结果" style="whiteSpace=wrap;html=1;rounded=1;glass=0;strokeWidth=1;shadow=0;" vertex="1" parent="1jNsRgJLZ7SKrJE8_M94-35">
          <mxGeometry x="40" y="630" width="120" height="60" as="geometry" />
        </mxCell>
        <mxCell id="1jNsRgJLZ7SKrJE8_M94-27" value="结束" style="whiteSpace=wrap;html=1;rounded=1;glass=0;strokeWidth=1;shadow=0;" vertex="1" parent="1jNsRgJLZ7SKrJE8_M94-35">
          <mxGeometry x="40" y="710" width="120" height="60" as="geometry" />
        </mxCell>
        <mxCell id="1jNsRgJLZ7SKrJE8_M94-28" value="" style="edgeStyle=orthogonalEdgeStyle;rounded=0;orthogonalLoop=1;jettySize=auto;html=1;" edge="1" parent="1jNsRgJLZ7SKrJE8_M94-35" source="1jNsRgJLZ7SKrJE8_M94-18" target="1jNsRgJLZ7SKrJE8_M94-27">
          <mxGeometry relative="1" as="geometry" />
        </mxCell>
        <mxCell id="1jNsRgJLZ7SKrJE8_M94-70" style="edgeStyle=orthogonalEdgeStyle;rounded=0;orthogonalLoop=1;jettySize=auto;html=1;exitX=0.5;exitY=1;exitDx=0;exitDy=0;" edge="1" parent="1jNsRgJLZ7SKrJE8_M94-35" source="1jNsRgJLZ7SKrJE8_M94-65" target="1jNsRgJLZ7SKrJE8_M94-18">
          <mxGeometry relative="1" as="geometry" />
        </mxCell>
        <mxCell id="1jNsRgJLZ7SKrJE8_M94-65" value="部署到对应终端或者设备，自动执行用例" style="whiteSpace=wrap;html=1;rounded=1;glass=0;strokeWidth=1;shadow=0;" vertex="1" parent="1jNsRgJLZ7SKrJE8_M94-35">
          <mxGeometry x="40" y="550" width="120" height="60" as="geometry" />
        </mxCell>
        <mxCell id="1jNsRgJLZ7SKrJE8_M94-12" value="编译构建输出物上传到部门对应gitlab仓库" style="whiteSpace=wrap;html=1;rounded=1;glass=0;strokeWidth=1;shadow=0;" vertex="1" parent="1jNsRgJLZ7SKrJE8_M94-35">
          <mxGeometry x="40" y="370" width="120" height="60" as="geometry" />
        </mxCell>
        <mxCell id="1jNsRgJLZ7SKrJE8_M94-58" value="" style="edgeStyle=orthogonalEdgeStyle;rounded=0;orthogonalLoop=1;jettySize=auto;html=1;" edge="1" parent="1jNsRgJLZ7SKrJE8_M94-35" source="1jNsRgJLZ7SKrJE8_M94-12" target="1jNsRgJLZ7SKrJE8_M94-57">
          <mxGeometry relative="1" as="geometry" />
        </mxCell>
        <mxCell id="1jNsRgJLZ7SKrJE8_M94-38" value="" style="edgeStyle=orthogonalEdgeStyle;rounded=0;orthogonalLoop=1;jettySize=auto;html=1;" edge="1" parent="WIyWlLk6GJQsqaUBKTNV-1" target="1jNsRgJLZ7SKrJE8_M94-40">
          <mxGeometry relative="1" as="geometry">
            <mxPoint x="500" y="180" as="sourcePoint" />
          </mxGeometry>
        </mxCell>
        <mxCell id="1jNsRgJLZ7SKrJE8_M94-39" value="" style="edgeStyle=orthogonalEdgeStyle;rounded=0;orthogonalLoop=1;jettySize=auto;html=1;" edge="1" parent="WIyWlLk6GJQsqaUBKTNV-1" source="1jNsRgJLZ7SKrJE8_M94-40" target="1jNsRgJLZ7SKrJE8_M94-50">
          <mxGeometry relative="1" as="geometry" />
        </mxCell>
        <mxCell id="1jNsRgJLZ7SKrJE8_M94-40" value="部署到对应终端、服务器或者虚机上" style="whiteSpace=wrap;html=1;rounded=1;glass=0;strokeWidth=1;shadow=0;" vertex="1" parent="WIyWlLk6GJQsqaUBKTNV-1">
          <mxGeometry x="440" y="210" width="120" height="60" as="geometry" />
        </mxCell>
        <mxCell id="1jNsRgJLZ7SKrJE8_M94-41" value="" style="edgeStyle=orthogonalEdgeStyle;rounded=0;orthogonalLoop=1;jettySize=auto;html=1;" edge="1" parent="WIyWlLk6GJQsqaUBKTNV-1" source="1jNsRgJLZ7SKrJE8_M94-42" target="1jNsRgJLZ7SKrJE8_M94-44">
          <mxGeometry relative="1" as="geometry" />
        </mxCell>
        <mxCell id="1jNsRgJLZ7SKrJE8_M94-42" value="从对应仓库拉取自动测试用例（是否需要部署到对应设备？）" style="whiteSpace=wrap;html=1;rounded=1;glass=0;strokeWidth=1;shadow=0;" vertex="1" parent="WIyWlLk6GJQsqaUBKTNV-1">
          <mxGeometry x="440" y="400" width="120" height="60" as="geometry" />
        </mxCell>
        <mxCell id="1jNsRgJLZ7SKrJE8_M94-43" value="" style="edgeStyle=orthogonalEdgeStyle;rounded=0;orthogonalLoop=1;jettySize=auto;html=1;" edge="1" parent="WIyWlLk6GJQsqaUBKTNV-1" source="1jNsRgJLZ7SKrJE8_M94-44" target="1jNsRgJLZ7SKrJE8_M94-46">
          <mxGeometry relative="1" as="geometry" />
        </mxCell>
        <mxCell id="1jNsRgJLZ7SKrJE8_M94-44" value="执行自动测试用例" style="whiteSpace=wrap;html=1;rounded=1;glass=0;strokeWidth=1;shadow=0;" vertex="1" parent="WIyWlLk6GJQsqaUBKTNV-1">
          <mxGeometry x="440" y="480" width="120" height="60" as="geometry" />
        </mxCell>
        <mxCell id="1jNsRgJLZ7SKrJE8_M94-45" value="" style="edgeStyle=orthogonalEdgeStyle;rounded=0;orthogonalLoop=1;jettySize=auto;html=1;" edge="1" parent="WIyWlLk6GJQsqaUBKTNV-1" source="1jNsRgJLZ7SKrJE8_M94-46" target="1jNsRgJLZ7SKrJE8_M94-51">
          <mxGeometry relative="1" as="geometry" />
        </mxCell>
        <mxCell id="1jNsRgJLZ7SKrJE8_M94-46" value="邮件通知相关人员结果" style="whiteSpace=wrap;html=1;rounded=1;glass=0;strokeWidth=1;shadow=0;" vertex="1" parent="WIyWlLk6GJQsqaUBKTNV-1">
          <mxGeometry x="440" y="555" width="120" height="60" as="geometry" />
        </mxCell>
        <mxCell id="1jNsRgJLZ7SKrJE8_M94-47" value="Y" style="edgeStyle=orthogonalEdgeStyle;rounded=0;orthogonalLoop=1;jettySize=auto;html=1;exitX=0.5;exitY=1;exitDx=0;exitDy=0;entryX=0.5;entryY=0;entryDx=0;entryDy=0;" edge="1" parent="WIyWlLk6GJQsqaUBKTNV-1" source="1jNsRgJLZ7SKrJE8_M94-50" target="1jNsRgJLZ7SKrJE8_M94-42">
          <mxGeometry relative="1" as="geometry" />
        </mxCell>
        <mxCell id="1jNsRgJLZ7SKrJE8_M94-48" style="edgeStyle=orthogonalEdgeStyle;rounded=0;orthogonalLoop=1;jettySize=auto;html=1;exitX=1;exitY=0.5;exitDx=0;exitDy=0;entryX=1;entryY=0.5;entryDx=0;entryDy=0;" edge="1" parent="WIyWlLk6GJQsqaUBKTNV-1" source="1jNsRgJLZ7SKrJE8_M94-50" target="1jNsRgJLZ7SKrJE8_M94-46">
          <mxGeometry relative="1" as="geometry" />
        </mxCell>
        <mxCell id="1jNsRgJLZ7SKrJE8_M94-49" value="N" style="edgeLabel;html=1;align=center;verticalAlign=middle;resizable=0;points=[];" vertex="1" connectable="0" parent="1jNsRgJLZ7SKrJE8_M94-48">
          <mxGeometry x="-0.8176" y="-2" relative="1" as="geometry">
            <mxPoint as="offset" />
          </mxGeometry>
        </mxCell>
        <mxCell id="1jNsRgJLZ7SKrJE8_M94-50" value="部署成功与否" style="rhombus;whiteSpace=wrap;html=1;rounded=1;glass=0;strokeWidth=1;shadow=0;" vertex="1" parent="WIyWlLk6GJQsqaUBKTNV-1">
          <mxGeometry x="460" y="290" width="80" height="80" as="geometry" />
        </mxCell>
        <mxCell id="1jNsRgJLZ7SKrJE8_M94-51" value="结束" style="whiteSpace=wrap;html=1;rounded=1;glass=0;strokeWidth=1;shadow=0;" vertex="1" parent="WIyWlLk6GJQsqaUBKTNV-1">
          <mxGeometry x="440" y="630" width="120" height="60" as="geometry" />
        </mxCell>
        <mxCell id="1jNsRgJLZ7SKrJE8_M94-52" value="定时从协议拉取二进制包" style="rounded=1;whiteSpace=wrap;html=1;" vertex="1" parent="WIyWlLk6GJQsqaUBKTNV-1">
          <mxGeometry x="440" y="130" width="120" height="60" as="geometry" />
        </mxCell>
        <mxCell id="1jNsRgJLZ7SKrJE8_M94-53" style="edgeStyle=orthogonalEdgeStyle;rounded=0;orthogonalLoop=1;jettySize=auto;html=1;exitX=0.5;exitY=1;exitDx=0;exitDy=0;entryX=0.5;entryY=0;entryDx=0;entryDy=0;" edge="1" parent="WIyWlLk6GJQsqaUBKTNV-1" source="1jNsRgJLZ7SKrJE8_M94-54" target="1jNsRgJLZ7SKrJE8_M94-52">
          <mxGeometry relative="1" as="geometry" />
        </mxCell>
        <mxCell id="1jNsRgJLZ7SKrJE8_M94-54" value="开始" style="rounded=1;whiteSpace=wrap;html=1;" vertex="1" parent="WIyWlLk6GJQsqaUBKTNV-1">
          <mxGeometry x="440" y="50" width="120" height="60" as="geometry" />
        </mxCell>
        <mxCell id="1jNsRgJLZ7SKrJE8_M94-55" value="部门-协议组" style="swimlane;" vertex="1" parent="WIyWlLk6GJQsqaUBKTNV-1">
          <mxGeometry x="400" y="20" width="200" height="680" as="geometry" />
        </mxCell>
        <mxCell id="1jNsRgJLZ7SKrJE8_M94-73" style="edgeStyle=orthogonalEdgeStyle;rounded=0;orthogonalLoop=1;jettySize=auto;html=1;exitX=1;exitY=0.75;exitDx=0;exitDy=0;entryX=1;entryY=0.5;entryDx=0;entryDy=0;" edge="1" parent="WIyWlLk6GJQsqaUBKTNV-1" source="1jNsRgJLZ7SKrJE8_M94-31" target="1jNsRgJLZ7SKrJE8_M94-31">
          <mxGeometry relative="1" as="geometry" />
        </mxCell>
      </root>
    </mxGraphModel>
  </diagram>
</mxfile>
